# xmcd
#
# Track frame offsets:
#	150
#	13314
#	25513
#	37817
#	50109
#	63212
#	75517
#	87114
#	100396
#	113308
#	126262
#	138890
#	151153
#	163355
#
# Disc length: 2353 seconds
#
# Revision: 0
# Processed by: cddbd v1.5.2PL0 Copyright (c) Steve Scherf et al.
# Submitted via: dBpowerAMP V4.0
#
DISCID=a4092f0e
DTITLE=Hank Williams - The Hillbilly Shakespeare
DYEAR=2005
DGENRE=Country
TTITLE0=Mind Your Own Business
TTITLE1=Lovesick Blues
TTITLE2=Move It On Over
TTITLE3=Honky Tonkin'
TTITLE4=Wedding Bells
TTITLE5=I Saw The Light
TTITLE6=A Mansion On The Hill
TTITLE7=Your Gonna Change (Or I'm Gonna Leave)
TTITLE8=I Can't Get You Off Of My Mind
TTITLE9=Calling You
TTITLE10=I Don't Care (If Tomorrow Never Comes)
TTITLE11=(Last Night) I Heard You Cryin' In Your Sleep
TTITLE12=My Sweet Love Ain't Around
TTITLE13=I'm A Long Gone Daddy
EXTD=
EXTT0=
EXTT1=
EXTT2=
EXTT3=
EXTT4=
EXTT5=
EXTT6=
EXTT7=
EXTT8=
EXTT9=
EXTT10=
EXTT11=
EXTT12=
EXTT13=
PLAYORDER=
